<?xml version="1.0" encoding="UTF-8" standalone="no"?>
<!DOCTYPE svg PUBLIC "-//W3C//DTD SVG 1.1//EN"
 "http://www.w3.org/Graphics/SVG/1.1/DTD/svg11.dtd">
<!-- Generated by graphviz version 2.40.1 (20161225.0304)
 -->
<!-- Title: D Pages: 1 -->
<svg width="974pt" height="593pt"
 viewBox="14.40 14.40 959.97 578.67" xmlns="http://www.w3.org/2000/svg" xmlns:xlink="http://www.w3.org/1999/xlink">
<g id="graph0" class="graph" transform="scale(1 1) rotate(0) translate(18.4 574.6695)">
<title>D</title>
<polygon fill="#ffffff" stroke="transparent" points="-4,4 -4,-560.2695 941.5744,-560.2695 941.5744,4 -4,4"/>
<!-- トップ -->
<g id="node1" class="node">
<title>トップ</title>
<polygon fill="none" stroke="#000000" points="0,-338.9695 0,-447.7695 92,-447.7695 92,-338.9695 0,-338.9695"/>
<text text-anchor="start" x="7" y="-430.8695" font-family="Osaka-Mono,ＭＳ ゴシック" font-size="11.00" fill="#000000">トップ</text>
<polyline fill="none" stroke="#000000" points="0,-420.5695 92,-420.5695 "/>
<text text-anchor="start" x="7" y="-403.6695" font-family="Osaka-Mono,ＭＳ ゴシック" font-size="11.00" fill="#000000">最近のイベント</text>
<polyline fill="none" stroke="#000000" points="0,-393.3695 92,-393.3695 "/>
<text text-anchor="start" x="7" y="-376.4695" font-family="Osaka-Mono,ＭＳ ゴシック" font-size="11.00" fill="#000000">ログイン</text>
<polyline fill="none" stroke="#000000" points="0,-366.1695 92,-366.1695 "/>
<text text-anchor="start" x="7" y="-349.2695" font-family="Osaka-Mono,ＭＳ ゴシック" font-size="11.00" fill="#000000">検索</text>
</g>
<!-- ログイン -->
<g id="node2" class="node">
<title>ログイン</title>
<polygon fill="none" stroke="#000000" points="128,-364.9695 128,-459.7695 220,-459.7695 220,-364.9695 128,-364.9695"/>
<text text-anchor="start" x="135" y="-442.8695" font-family="Osaka-Mono,ＭＳ ゴシック" font-size="11.00" fill="#000000">ログイン</text>
<polyline fill="none" stroke="#000000" points="128,-432.5695 220,-432.5695 "/>
<text text-anchor="start" x="135" y="-415.6695" font-family="Osaka-Mono,ＭＳ ゴシック" font-size="11.00" fill="#000000">メールアドレス</text>
<text text-anchor="start" x="135" y="-402.4695" font-family="Osaka-Mono,ＭＳ ゴシック" font-size="11.00" fill="#000000">パスワード</text>
<polyline fill="none" stroke="#000000" points="128,-392.1695 220,-392.1695 "/>
<text text-anchor="start" x="135" y="-375.2695" font-family="Osaka-Mono,ＭＳ ゴシック" font-size="11.00" fill="#000000">ログイン</text>
</g>
<!-- トップ&#45;&gt;ログイン -->
<g id="edge1" class="edge">
<title>トップ:action0&#45;&gt;ログイン</title>
<path fill="none" stroke="#777777" d="M92,-379.3695C100.8082,-379.3695 109.7888,-381.0284 118.4217,-383.6024"/>
<polygon fill="#777777" stroke="#777777" points="117.3987,-386.9513 127.9931,-386.8577 119.6527,-380.3241 117.3987,-386.9513"/>
</g>
<!-- イベント検索 -->
<g id="node7" class="node">
<title>イベント検索</title>
<polygon fill="none" stroke="#000000" points="287.1064,-381.3695 287.1064,-503.3695 382.8936,-503.3695 382.8936,-381.3695 287.1064,-381.3695"/>
<text text-anchor="start" x="294.1064" y="-486.4695" font-family="Osaka-Mono,ＭＳ ゴシック" font-size="11.00" fill="#000000">イベント検索</text>
<polyline fill="none" stroke="#000000" points="287.1064,-476.1695 382.8936,-476.1695 "/>
<text text-anchor="start" x="294.1064" y="-459.2695" font-family="Osaka-Mono,ＭＳ ゴシック" font-size="11.00" fill="#000000">検索キーワード</text>
<text text-anchor="start" x="294.1064" y="-446.0695" font-family="Osaka-Mono,ＭＳ ゴシック" font-size="11.00" fill="#000000">検索結果</text>
<polyline fill="none" stroke="#000000" points="287.1064,-435.7695 382.8936,-435.7695 "/>
<text text-anchor="start" x="294.1064" y="-418.8695" font-family="Osaka-Mono,ＭＳ ゴシック" font-size="11.00" fill="#000000">検索</text>
<polyline fill="none" stroke="#000000" points="287.1064,-408.5695 382.8936,-408.5695 "/>
<text text-anchor="start" x="294.1064" y="-391.6695" font-family="Osaka-Mono,ＭＳ ゴシック" font-size="11.00" fill="#000000">イベントページ</text>
</g>
<!-- トップ&#45;&gt;イベント検索 -->
<g id="edge2" class="edge">
<title>トップ:action1&#45;&gt;イベント検索</title>
<path fill="none" stroke="#777777" d="M92,-352.3695C148.8958,-352.3695 166.3115,-331.5365 220,-350.3695 241.3408,-357.8554 261.6635,-371.1516 279.1238,-385.3492"/>
<polygon fill="#777777" stroke="#777777" points="277.0312,-388.1625 286.938,-391.9183 281.5356,-382.8043 277.0312,-388.1625"/>
</g>
<!-- マイページ -->
<g id="node3" class="node">
<title>マイページ</title>
<polygon fill="none" stroke="#000000" points="256,-182.7695 256,-331.9695 414,-331.9695 414,-182.7695 256,-182.7695"/>
<text text-anchor="start" x="263" y="-315.0695" font-family="Osaka-Mono,ＭＳ ゴシック" font-size="11.00" fill="#000000">マイページ</text>
<polyline fill="none" stroke="#000000" points="256,-304.7695 414,-304.7695 "/>
<text text-anchor="start" x="263" y="-287.8695" font-family="Osaka-Mono,ＭＳ ゴシック" font-size="11.00" fill="#000000">作成済みイベント一覧</text>
<text text-anchor="start" x="263" y="-274.6695" font-family="Osaka-Mono,ＭＳ ゴシック" font-size="11.00" fill="#000000">エントリー済みイベント一覧</text>
<polyline fill="none" stroke="#000000" points="256,-264.3695 414,-264.3695 "/>
<text text-anchor="start" x="263" y="-247.4695" font-family="Osaka-Mono,ＭＳ ゴシック" font-size="11.00" fill="#000000">イベント作成</text>
<polyline fill="none" stroke="#000000" points="256,-237.1695 414,-237.1695 "/>
<text text-anchor="start" x="263" y="-220.2695" font-family="Osaka-Mono,ＭＳ ゴシック" font-size="11.00" fill="#000000">イベント編集</text>
<polyline fill="none" stroke="#000000" points="256,-209.9695 414,-209.9695 "/>
<text text-anchor="start" x="263" y="-193.0695" font-family="Osaka-Mono,ＭＳ ゴシック" font-size="11.00" fill="#000000">イベントページ</text>
</g>
<!-- ログイン&#45;&gt;マイページ -->
<g id="edge3" class="edge">
<title>ログイン:action0&#45;&gt;マイページ</title>
<path fill="none" stroke="#777777" d="M220,-378.3695C233.9344,-378.3695 253.6269,-361.2963 272.7855,-339.9765"/>
<polygon fill="#777777" stroke="#777777" points="275.5719,-342.1073 279.5295,-332.2794 270.3069,-337.4943 275.5719,-342.1073"/>
</g>
<!-- イベントページ -->
<g id="node4" class="node">
<title>イベントページ</title>
<polygon fill="none" stroke="#000000" points="600,-380.9695 600,-555.7695 805.5023,-555.7695 805.5023,-380.9695 600,-380.9695"/>
<text text-anchor="start" x="607" y="-538.8695" font-family="Osaka-Mono,ＭＳ ゴシック" font-size="11.00" fill="#000000">イベントページ</text>
<polyline fill="none" stroke="#000000" points="600,-528.5695 805.5023,-528.5695 "/>
<text text-anchor="start" x="607" y="-511.6695" font-family="Osaka-Mono,ＭＳ ゴシック" font-size="11.00" fill="#000000">※公開期間外は作成者のみ表示可能</text>
<text text-anchor="start" x="607" y="-498.4695" font-family="Osaka-Mono,ＭＳ ゴシック" font-size="11.00" fill="#000000">イベント名</text>
<text text-anchor="start" x="607" y="-485.2695" font-family="Osaka-Mono,ＭＳ ゴシック" font-size="11.00" fill="#000000">開催日時</text>
<text text-anchor="start" x="607" y="-472.0695" font-family="Osaka-Mono,ＭＳ ゴシック" font-size="11.00" fill="#000000">開催場所</text>
<text text-anchor="start" x="607" y="-458.8695" font-family="Osaka-Mono,ＭＳ ゴシック" font-size="11.00" fill="#000000">資料</text>
<text text-anchor="start" x="607" y="-445.6695" font-family="Osaka-Mono,ＭＳ ゴシック" font-size="11.00" fill="#000000">コメント</text>
<polyline fill="none" stroke="#000000" points="600,-435.3695 805.5023,-435.3695 "/>
<text text-anchor="start" x="607" y="-418.4695" font-family="Osaka-Mono,ＭＳ ゴシック" font-size="11.00" fill="#000000">参加エントリー</text>
<polyline fill="none" stroke="#000000" points="600,-408.1695 805.5023,-408.1695 "/>
<text text-anchor="start" x="607" y="-391.2695" font-family="Osaka-Mono,ＭＳ ゴシック" font-size="11.00" fill="#000000">参加キャンセル</text>
</g>
<!-- マイページ&#45;&gt;イベントページ -->
<g id="edge6" class="edge">
<title>マイページ:action2&#45;&gt;イベントページ</title>
<path fill="none" stroke="#777777" d="M414,-196.3695C492.536,-196.3695 389.0719,-72.9241 450,-23.3695 489.3072,8.6002 523.1879,6.6553 564,-23.3695 620.2137,-64.7249 663.662,-252.3429 686.03,-370.3712"/>
<polygon fill="#777777" stroke="#777777" points="682.6479,-371.3254 687.9319,-380.5085 689.5279,-370.0346 682.6479,-371.3254"/>
</g>
<!-- イベントページ作成 -->
<g id="node8" class="node">
<title>イベントページ作成</title>
<polygon fill="none" stroke="#000000" points="450,-189.7695 450,-310.9695 564,-310.9695 564,-189.7695 450,-189.7695"/>
<text text-anchor="start" x="457" y="-294.0695" font-family="Osaka-Mono,ＭＳ ゴシック" font-size="11.00" fill="#000000">イベントページ作成</text>
<polyline fill="none" stroke="#000000" points="450,-283.7695 564,-283.7695 "/>
<text text-anchor="start" x="457" y="-266.8695" font-family="Osaka-Mono,ＭＳ ゴシック" font-size="11.00" fill="#000000">タイトル</text>
<text text-anchor="start" x="457" y="-253.6695" font-family="Osaka-Mono,ＭＳ ゴシック" font-size="11.00" fill="#000000">開催日時</text>
<text text-anchor="start" x="457" y="-240.4695" font-family="Osaka-Mono,ＭＳ ゴシック" font-size="11.00" fill="#000000">開催場所</text>
<text text-anchor="start" x="457" y="-227.2695" font-family="Osaka-Mono,ＭＳ ゴシック" font-size="11.00" fill="#000000">公開期間</text>
<polyline fill="none" stroke="#000000" points="450,-216.9695 564,-216.9695 "/>
<text text-anchor="start" x="457" y="-200.0695" font-family="Osaka-Mono,ＭＳ ゴシック" font-size="11.00" fill="#000000">作成</text>
</g>
<!-- マイページ&#45;&gt;イベントページ作成 -->
<g id="edge4" class="edge">
<title>マイページ:action0&#45;&gt;イベントページ作成</title>
<path fill="none" stroke="#777777" d="M414,-250.3695C422.3555,-250.3695 431.1332,-250.3695 439.821,-250.3695"/>
<polygon fill="#777777" stroke="#777777" points="439.9478,-253.8696 449.9478,-250.3695 439.9478,-246.8696 439.9478,-253.8696"/>
</g>
<!-- イベントページ編集 -->
<g id="node9" class="node">
<title>イベントページ編集</title>
<polygon fill="none" stroke="#000000" points="450,-38.7695 450,-159.9695 564,-159.9695 564,-38.7695 450,-38.7695"/>
<text text-anchor="start" x="457" y="-143.0695" font-family="Osaka-Mono,ＭＳ ゴシック" font-size="11.00" fill="#000000">イベントページ編集</text>
<polyline fill="none" stroke="#000000" points="450,-132.7695 564,-132.7695 "/>
<text text-anchor="start" x="457" y="-115.8695" font-family="Osaka-Mono,ＭＳ ゴシック" font-size="11.00" fill="#000000">タイトル</text>
<text text-anchor="start" x="457" y="-102.6695" font-family="Osaka-Mono,ＭＳ ゴシック" font-size="11.00" fill="#000000">開催日時</text>
<text text-anchor="start" x="457" y="-89.4695" font-family="Osaka-Mono,ＭＳ ゴシック" font-size="11.00" fill="#000000">開催場所</text>
<text text-anchor="start" x="457" y="-76.2695" font-family="Osaka-Mono,ＭＳ ゴシック" font-size="11.00" fill="#000000">公開期間</text>
<polyline fill="none" stroke="#000000" points="450,-65.9695 564,-65.9695 "/>
<text text-anchor="start" x="457" y="-49.0695" font-family="Osaka-Mono,ＭＳ ゴシック" font-size="11.00" fill="#000000">更新</text>
</g>
<!-- マイページ&#45;&gt;イベントページ編集 -->
<g id="edge5" class="edge">
<title>マイページ:action1&#45;&gt;イベントページ編集</title>
<path fill="none" stroke="#777777" d="M414,-223.3695C441.0235,-223.3695 433.8237,-196.0166 450,-174.3695 451.392,-172.5067 452.8052,-170.6195 454.2329,-168.7163"/>
<polygon fill="#777777" stroke="#777777" points="457.3525,-170.3914 460.5657,-160.2955 451.758,-166.1841 457.3525,-170.3914"/>
</g>
<!-- 参加確認 -->
<g id="node5" class="node">
<title>参加確認</title>
<polygon fill="none" stroke="#000000" points="853.2597,-332.6695 853.2597,-414.0695 925.817,-414.0695 925.817,-332.6695 853.2597,-332.6695"/>
<text text-anchor="start" x="860.2597" y="-397.1695" font-family="Osaka-Mono,ＭＳ ゴシック" font-size="11.00" fill="#000000">参加確認</text>
<polyline fill="none" stroke="#000000" points="853.2597,-386.8695 925.817,-386.8695 "/>
<polyline fill="none" stroke="#000000" points="853.2597,-359.8695 925.817,-359.8695 "/>
<text text-anchor="start" x="860.2597" y="-342.9695" font-family="Osaka-Mono,ＭＳ ゴシック" font-size="11.00" fill="#000000">エントリー</text>
</g>
<!-- イベントページ&#45;&gt;参加確認 -->
<g id="edge7" class="edge">
<title>イベントページ:action0&#45;&gt;参加確認</title>
<path fill="none" stroke="#777777" d="M805.5023,-421.3695C819.0251,-421.3695 832.3513,-416.625 844.2679,-410.1194"/>
<polygon fill="#777777" stroke="#777777" points="846.2967,-412.9844 853.0858,-404.8506 842.7062,-406.9754 846.2967,-412.9844"/>
</g>
<!-- キャンセル確認 -->
<g id="node6" class="node">
<title>キャンセル確認</title>
<polygon fill="none" stroke="#000000" points="841.5023,-448.6695 841.5023,-530.0695 937.5744,-530.0695 937.5744,-448.6695 841.5023,-448.6695"/>
<text text-anchor="start" x="848.5023" y="-513.1695" font-family="Osaka-Mono,ＭＳ ゴシック" font-size="11.00" fill="#000000">キャンセル確認</text>
<polyline fill="none" stroke="#000000" points="841.5023,-502.8695 937.5744,-502.8695 "/>
<polyline fill="none" stroke="#000000" points="841.5023,-475.8695 937.5744,-475.8695 "/>
<text text-anchor="start" x="848.5023" y="-458.9695" font-family="Osaka-Mono,ＭＳ ゴシック" font-size="11.00" fill="#000000">キャンセル</text>
</g>
<!-- イベントページ&#45;&gt;キャンセル確認 -->
<g id="edge8" class="edge">
<title>イベントページ:action1&#45;&gt;キャンセル確認</title>
<path fill="none" stroke="#777777" d="M805.5023,-394.3695C808.9644,-394.3695 829.3114,-417.3032 849.1153,-440.6345"/>
<polygon fill="#777777" stroke="#777777" points="846.6582,-443.1495 855.7854,-448.5296 852.0054,-438.632 846.6582,-443.1495"/>
</g>
<!-- 参加確認&#45;&gt;マイページ -->
<g id="edge9" class="edge">
<title>参加確認:action0&#45;&gt;マイページ</title>
<path fill="none" stroke="#777777" d="M853.5384,-346.3695C673.9678,-346.3695 621.815,-378.5727 450,-326.3695 440.9888,-323.6316 431.9542,-320.0362 423.1286,-315.9228"/>
<polygon fill="#777777" stroke="#777777" points="424.5373,-312.7156 414.0168,-311.4629 421.4598,-319.0028 424.5373,-312.7156"/>
</g>
<!-- キャンセル確認&#45;&gt;イベントページ -->
<g id="edge10" class="edge">
<title>キャンセル確認:action0&#45;&gt;イベントページ</title>
<path fill="none" stroke="#777777" d="M841.5384,-462.3695C833.2178,-462.3695 824.6193,-462.4784 815.9688,-462.667"/>
<polygon fill="#777777" stroke="#777777" points="815.7123,-459.1723 805.8036,-462.9232 815.8887,-466.17 815.7123,-459.1723"/>
</g>
<!-- イベント検索&#45;&gt;イベントページ -->
<g id="edge12" class="edge">
<title>イベント検索:action1&#45;&gt;イベントページ</title>
<path fill="none" stroke="#777777" d="M383,-395.3695C452.8497,-395.3695 529.1779,-412.1315 589.7372,-429.5913"/>
<polygon fill="#777777" stroke="#777777" points="589.1201,-433.0576 599.7008,-432.511 591.0886,-426.3401 589.1201,-433.0576"/>
</g>
<!-- イベント検索&#45;&gt;イベント検索 -->
<g id="edge11" class="edge">
<title>イベント検索:action0&#45;&gt;イベント検索</title>
<path fill="none" stroke="#777777" d="M286.7793,-413.3553C247.6355,-410.2322 207.1064,-415.4779 207.1064,-432.3695 207.1064,-447.8094 240.9689,-453.5191 276.6835,-452.0013"/>
<polygon fill="#777777" stroke="#777777" points="277.0118,-455.4879 286.7793,-451.3836 276.5842,-448.5009 277.0118,-455.4879"/>
</g>
<!-- イベントページ作成&#45;&gt;イベントページ -->
<g id="edge13" class="edge">
<title>イベントページ作成:action0&#45;&gt;イベントページ</title>
<path fill="none" stroke="#777777" d="M564,-203.3695C642.278,-203.3695 676.4788,-295.2406 691.3699,-370.7958"/>
<polygon fill="#777777" stroke="#777777" points="687.9751,-371.6821 693.2611,-380.8641 694.8548,-370.3898 687.9751,-371.6821"/>
</g>
<!-- イベントページ編集&#45;&gt;イベントページ -->
<g id="edge14" class="edge">
<title>イベントページ編集:action0&#45;&gt;イベントページ</title>
<path fill="none" stroke="#777777" d="M564,-52.3695C630.7854,-52.3695 671.1986,-247.7516 690.0196,-370.7158"/>
<polygon fill="#777777" stroke="#777777" points="686.6045,-371.542 691.5559,-380.9087 693.5264,-370.4987 686.6045,-371.542"/>
</g>
</g>
</svg>
